<svg xmlns="http://www.w3.org/2000/svg" viewBox="0 0 317.3 248.75"><defs><style>.cls-1{fill:#c0392b;}.cls-2{fill:#e74c3c;}</style></defs><title>Asset 2</title><g id="Layer_2" data-name="Layer 2"><g id="Layer_1-2" data-name="Layer 1"><line class="cls-1" x1="29.01" y1="248.75" x2="29.01" y2="223.87"/><path class="cls-1" d="M63.51,55.93V184.57A130.34,130.34,0,0,1,29,223.87l-.5.38v-143A129.43,129.43,0,0,0,0,0,129.61,129.61,0,0,1,28.51,16.25l.5.38A130.34,130.34,0,0,1,63.51,55.93Z"/><path class="cls-1" d="M130.51,55.93V184.57A130.34,130.34,0,0,1,96,223.87l-.5.38v-143A129.43,129.43,0,0,0,67,0,129.61,129.61,0,0,1,95.51,16.25l.5.38A130.34,130.34,0,0,1,130.51,55.93Z"/><path class="cls-1" d="M194.51,55.93V184.57a130.34,130.34,0,0,1-34.5,39.3l-.5.38v-143A129.43,129.43,0,0,0,131,0a129.61,129.61,0,0,1,28.51,16.25l.5.38A130.34,130.34,0,0,1,194.51,55.93Z"/><path class="cls-2" d="M314.51,80.25c-5-98-143-74-100-10,41.5,41.5,65.5,41.5,85,53,31.5,26.5,17.5,82.5-13.5,87.5-16,2-75,1-85,1,4-7,33-34,48-34,18,1,23,0,30,0,11-2,7.64-27.2,1-30-45-19-60-35-60-35s-8-6-7-15c0-6,1-27,1-27S247,9.75,314.51,80.25Z"/></g></g></svg>